<svg data-v-fde0c5aa="" xmlns="http://www.w3.org/2000/svg" viewBox="0 0 300 300" class="iconLeft"><!----><defs data-v-fde0c5aa=""><!----></defs><rect data-v-fde0c5aa="" fill="#1b264f" x="0" y="0" width="300px" height="300px" class="logo-background-square"></rect><defs data-v-fde0c5aa=""><!----></defs><g data-v-fde0c5aa="" id="3577a339-6f90-4276-b090-21a4db3a3194" fill="#FFFFFF" transform="matrix(1.9849333406410976,0,0,1.9849333406410976,82.9637959445092,127.75882206955491)"><path d="M6.65 13.66L2.48 13.66L2.48 11.86L6.65 11.86L6.65 8.75L5.03 7.81L2.74 7.81L1.12 8.75L1.12 13.94L2.74 14.88L6.65 14.88ZM2.48 9.03L5.29 9.03L5.29 10.64L2.48 10.64ZM14.15 11.66L12.53 10.72L10.25 10.72L10.25 9.10L14.01 9.10L14.01 7.88L10.51 7.88L8.89 8.82L8.89 11.00L10.51 11.94L12.80 11.94L12.80 13.66L8.89 13.66L8.89 14.88L12.53 14.88L14.15 13.94ZM20.86 14.95L22.48 14.01L22.48 8.75L20.86 7.81L18.75 7.81L17.75 8.39L17.42 7.81L16.39 7.81L16.39 17.68L17.75 17.68L17.75 14.38L18.75 14.95ZM17.75 9.03L21.13 9.03L21.13 13.73L17.75 13.73ZM30.67 14.01L30.67 8.75L29.05 7.81L26.35 7.81L24.72 8.75L24.72 14.01L26.35 14.95L29.05 14.95ZM26.08 9.03L29.32 9.03L29.32 13.73L26.08 13.73ZM36.82 9.10L36.82 7.88L35.27 7.88L34.27 8.46L33.94 7.88L32.91 7.88L32.91 14.88L34.27 14.88L34.27 9.10ZM37.80 9.10L39.09 9.10L39.09 13.94L40.71 14.88L42.13 14.88L42.13 13.66L40.45 13.66L40.45 9.10L42.13 9.10L42.13 7.88L40.45 7.88L40.45 5.92L39.09 6.71L39.09 7.88L37.80 7.88ZM49.35 14.88L50.76 14.88L50.76 13.66L49.08 13.66L49.08 4.66L47.73 4.66L47.73 13.94ZM57.69 13.66L53.52 13.66L53.52 11.86L57.69 11.86L57.69 8.75L56.07 7.81L53.79 7.81L52.16 8.75L52.16 13.94L53.79 14.88L57.69 14.88ZM53.52 9.03L56.34 9.03L56.34 10.64L53.52 10.64ZM61.01 12.01L63.83 12.01L63.83 13.73L61.01 13.73ZM61.28 14.95L62.83 14.95L63.83 14.38L64.82 14.95L65.18 14.95L65.18 8.82L63.56 7.88L60.35 7.88L60.35 9.10L63.83 9.10L63.83 10.79L61.28 10.79L59.65 11.73L59.65 14.01ZM68.78 14.88L72.16 14.88L72.16 16.56L68.50 16.56L68.50 15.16L67.14 15.95L67.14 16.81L68.77 17.75L71.89 17.75L73.51 16.81L73.51 14.60L71.89 13.66L68.78 13.66L68.78 12.47L71.47 12.47L73.09 11.54L73.09 9.60L72.24 9.10L73.51 8.36L73.51 7.88L69.05 7.88L67.42 8.82L67.42 11.69L68.42 12.26L67.42 12.84L67.42 14.10ZM68.78 9.07L71.74 9.07L71.74 11.28L68.78 11.28ZM75.47 14.01L77.10 14.95L79.07 14.95L80.07 14.38L80.40 14.95L81.42 14.95L81.42 7.88L80.07 7.88L80.07 13.73L76.83 13.73L76.83 7.88L75.47 7.88ZM89.19 13.66L85.02 13.66L85.02 11.86L89.19 11.86L89.19 8.75L87.57 7.81L85.29 7.81L83.66 8.75L83.66 13.94L85.29 14.88L89.19 14.88ZM85.02 9.03L87.84 9.03L87.84 10.64L85.02 10.64Z"></path></g><defs data-v-fde0c5aa=""><!----></defs><g data-v-fde0c5aa="" id="4754fbbe-ad4f-4e74-97cb-853ab4c83060" stroke="none" fill="#A669FF" transform="matrix(0.6997156803367854,0,0,0.6997156803367854,33.70255887696893,127.53212774271151)"><path d="M54.68 14.06c-8.97 0-19.95-7.76-22.68-9.8-2.73 2.04-13.71 9.8-22.68 9.8H9c.38 37.55 20.53 45.12 23 45.9 2.45-.79 22.62-8.44 23-45.9h-.32zM32 55c-1.22 0-5-4.94-5-9.29 0-2.92 1.25-4.38 4-4.65V46c0 .55.45 1 1 1s1-.45 1-1v-4.94c2.75.27 4 1.73 4 4.65 0 4.35-3.78 9.29-5 9.29zm10-23.65l-7 3.11v-8.41l3.32-1.1c.4-.14.68-.52.68-.95v-4c0-.32-.15-.62-.42-.81a.995.995 0 0 0-.9-.14L32 20.95l-5.68-1.9a.995.995 0 0 0-.9.14c-.27.19-.42.49-.42.81v4c0 .43.28.81.68.95l3.32 1.1v8.41l-7-3.11V23c0-5.51 4.49-10 10-10s10 4.49 10 10v8.35z"></path></g><!----></svg>